<svg height="512" viewBox="0 0 58 58" width="512" xmlns="http://www.w3.org/2000/svg"><g id="Page-1" fill="none" fill-rule="evenodd"><g id="059---Tap" fill-rule="nonzero" transform="translate(0 -1)"><path id="Shape" d="m45.832 1h-36.832c-3.3137085 0-6 2.6862915-6 6v48h.24c-.75894397.0004027-1.45226999.4303423-1.79 1.11l-.723 1.442c-.15533419.3099866-.13900825.678315.04314285.9733427.1821511.2950278.50412904.4746457.85085715.4746573h20.758c.3467281-.0000116.6687061-.1796295.8508572-.4746573.1821511-.2950277.198477-.6633561.0431428-.9733427l-.723-1.442c-.33773-.6796577-1.031056-1.1095973-1.79-1.11h.24v-44c0-2.209139 1.790861-4 4-4h21c.8899387.00008511 1.73414-.39429685 2.3051551-1.07688952.571015-.68259267.810102-1.58317605.6528449-2.45911048-.31475-1.46565658-1.6273676-2.50029821-3.126-2.464z" fill="#bdc3c7"/><path id="Shape" d="m57 28v5c0 .5522847-.4477153 1-1 1h-10c-.5522847 0-1-.4477153-1-1v-5z" fill="#95a5a5"/><path id="Rectangle-path" d="m3 17h18v38h-18z" fill="#95a5a5"/><path id="Shape" d="m58 26v3c0 .5522847-.4477153 1-1 1h-36v-10h31c3.3137085 0 6 2.6862915 6 6z" fill="#bdc3c7"/><path id="Shape" d="m7 24c-.55228475 0-1-.4477153-1-1v-2c0-.5522847.44771525-1 1-1s1 .4477153 1 1v2c0 .5522847-.44771525 1-1 1z" fill="#fff"/><path id="Shape" d="m7 43c-.55228475 0-1-.4477153-1-1v-15c0-.5522847.44771525-1 1-1s1 .4477153 1 1v15c0 .5522847-.44771525 1-1 1z" fill="#fff"/><path id="Shape" d="m58 52c.0016023.7620075-.1234341 1.5189846-.37 2.24-1.099007 3.244641-4.3848104 5.2172052-7.7651781 4.6616642s-5.8620432-3.475952-5.8648219-6.9016642c0-3.38 2.21-7.07 4.15-9.65.01-.01.01-.01.01-.02.8763511-1.1680955 1.8248676-2.2802645 2.84-3.33 0 0 7 7 7 13z" fill="#90bae1"/><path id="Shape" d="m58 52c.0016023.7620075-.1234341 1.5189846-.37 2.24-2.0601723 1.826173-5.0002074 2.2734355-7.5102366 1.1425195-2.5100293-1.130916-4.1227946-3.6294832-4.1197634-6.3825195.1424804-2.3628708.8822332-4.6509436 2.15-6.65.01-.01.01-.01.01-.02.8763511-1.1680955 1.8248676-2.2802645 2.84-3.33 0 0 7 7 7 13z" fill="#b0d3f0"/></g></g></svg>